<?xml version="1.0" encoding="UTF-8"?>
<svg id="Layer_1" data-name="Layer 1" xmlns="http://www.w3.org/2000/svg" viewBox="0 0 856 1024">
  <defs>
    <style>
      .cls-1 {
        fill: #1dbf73;
      }

      .cls-1, .cls-2 {
        stroke-width: 0px;
      }

      .cls-2 {
        fill: #7a7879;
      }
    </style>
  </defs>
  <path class="cls-2" d="M621.92,1020.65c-1.92-2.86-3.35-5.22-4.29-7.15l-92.3-164.62H235.25c-31.51-1.98-44.25-16.42-44.25-50.04V0H.37v803.44c0,135.51,85.94,219.69,224.28,219.69h399.95c-1.02-.64-1.96-1.39-2.68-2.47Z"/>
  <path class="cls-1" d="M851.83,1006.37l-277.03-474.09c-1.92-2.85-4.54-7.6-7.86-14.27-3.34-6.66-5-11.43-5-14.27,0-1.9,2.15-6.66,6.43-14.28,4.28-7.61,7.36-12.36,9.28-14.28L843.26,19.64c3.79-6.65,4.75-11.43,2.86-14.28-1.92-2.85-4.29-4.28-7.15-4.28h-217.05c-3.82,0-6.68,1.43-8.57,4.28-1.91,2.86-3.35,5.24-4.28,7.15l-215.62,389.84c-9.53,18.08-17.14,32.84-22.85,44.26-5.71,11.42-9.99,21.19-12.85,29.27-2.86,8.1-4.77,14.28-5.71,18.56-.96,4.28-1.42,8.34-1.42,12.13,0,21.91,14.27,57.61,42.84,107.1l131.88,235.22,92.3,164.62c.94,1.92,2.37,4.29,4.29,7.15.72,1.08,1.66,1.84,2.68,2.47.5.31.98.64,1.53.87h224.83c1.37-.7,2.64-1.74,3.73-3.35,1.89-2.86.93-7.61-2.86-14.28Z"/>
</svg>